# xmcd
#
# Track frame offsets:
# 150
# 13600
# 25780
# 40733
# 59405
# 69165
# 83468
# 99750
# 114875
# 130030
# 147758
# 156308
# 173668
# 184363
# 200258
# 213423
# 223190
# 235143
#
# Disc length: 3334 seconds
#
#
# Revision: 0
# Processed by: cddbd v1.5.2PL0 Copyright (c) Steve Scherf et al.
# Submitted via: FreeRIP 2.96 
#
DISCID=e70d0412
DTITLE=Various Artist - CSA Signature Series Volume 1
DYEAR=1994
DGENRE=Gospel
TTITLE0=Gospel Praises - When we sail away
TTITLE1=Rick Lloyd - Friendship
TTITLE2=Gospel Praises - You'll never be alone
TTITLE3=Rick Lloyd - He grew the tree
TTITLE4=Gospel Praises - Climbing higher
TTITLE5=Rick Lloyd - He touched me
TTITLE6=Gospel Praises - God will see you through
TTITLE7=Gospel Praises - Thyself for me
TTITLE8=Rick Lloyd - You must be born again
TTITLE9=Rick Lloyd - I'd rather have Jesus
TTITLE10=Gospel Praises - Are you ready to go
TTITLE11=Gospel Praises - What's this world gonna do
TTITLE12=Rick Lloyd - Trumpet call
TTITLE13=Rick Lloyd - New star shining
TTITLE14=Gospel Praises - All I need is Jesus by my side
TTITLE15=Gospel Praises - More than love alone
TTITLE16=Rick Lloyd - Falling in love with him
TTITLE17=Rick Lloyd - My Shepherd
EXTD=
EXTT0=
EXTT1=
EXTT2=
EXTT3=
EXTT4=
EXTT5=
EXTT6=
EXTT7=
EXTT8=
EXTT9=
EXTT10=
EXTT11=
EXTT12=
EXTT13=
EXTT14=
EXTT15=
EXTT16=
EXTT17=
PLAYORDER=
